Coordinates
version=1
nRows=38
nColumns=38
inDegrees=no

Units are S.I. units (second, meters, Newtons, ...)
If the header above contains a line with 'inDegrees', this indicates whether rotational values are in degrees (yes) or radians (no).

endheader
time	pelvis_tilt	pelvis_list	pelvis_rotation	pelvis_tx	pelvis_ty	pelvis_tz	hip_flexion_r	hip_adduction_r	hip_rotation_r	knee_angle_r	ankle_angle_r	subtalar_angle_r	mtp_angle_r	hip_flexion_l	hip_adduction_l	hip_rotation_l	knee_angle_l	ankle_angle_l	subtalar_angle_l	mtp_angle_l	lumbar_extension	lumbar_bending	lumbar_rotation	arm_flex_r	arm_add_r	arm_rot_r	elbow_flex_r	pro_sup_r	wrist_flex_r	wrist_dev_r	arm_flex_l	arm_add_l	arm_rot_l	elbow_flex_l	pro_sup_l	wrist_flex_l	wrist_dev_l
0.68	-0.0912748	1.23483	-1.64356	0.802246	1.55624	1.00055	-0.305545	0.0110473	-0.0952517	0.283108	0.147039	0	0	0.0577825	-0.0985021	-0.33228	0.404612	0.181823	0	0	-0.525783	0.0220683	0.0957586	0.507882	-0.515778	0.318279	1.0561	0.749522	0	0	0.334168	-0.271572	-0.0561636	1.18768	0.96163	0	0
0.69	-0.0952331	1.23747	-1.63863	0.802685	1.54635	0.999709	-0.316878	0.010802	-0.0975168	0.277885	0.154728	0	0	0.0611936	-0.0937703	-0.336694	0.351915	0.179825	0	0	-0.522292	0.0225323	0.0942818	0.505824	-0.517058	0.319166	1.059	0.751849	0	0	0.330411	-0.270453	-0.0593658	1.19122	0.962448	0	0
0.7	-0.101383	1.24093	-1.63114	0.803236	1.53633	0.998662	-0.327212	0.0113024	-0.100403	0.273024	0.162585	0	0	0.0638785	-0.0888573	-0.3387	0.297857	0.17951	0	0	-0.517726	0.0240319	0.0932689	0.502285	-0.518456	0.3171	1.06303	0.75787	0	0	0.327237	-0.268615	-0.0620745	1.19399	0.9639	0	0
0.71	-0.106588	1.24351	-1.62418	0.803927	1.52621	0.99755	-0.338348	0.0112821	-0.104179	0.268766	0.170361	0	0	0.0615583	-0.0809062	-0.333307	0.235706	0.174604	0	0	-0.514014	0.025455	0.0920228	0.498383	-0.520827	0.31666	1.06968	0.740025	0	0	0.324631	-0.266494	-0.065201	1.19719	0.960019	0	0
0.72	-0.117066	1.24863	-1.61223	0.80464	1.51597	0.996014	-0.345291	0.0130197	-0.107853	0.267824	0.179423	0	0	0.061876	-0.075358	-0.326813	0.176886	0.1717	0	0	-0.507331	0.0286833	0.0913988	0.494368	-0.521909	0.314221	1.07397	0.73992	0	0	0.321575	-0.264385	-0.0684039	1.19992	0.959921	0	0
0.73	-0.121317	1.25785	-1.6124	0.804361	1.50581	0.993553	-0.326649	-0.00267908	-0.162906	0.313682	0.212001	0	0	0.0622845	-0.0680419	-0.316148	0.11243	0.162992	0	0	-0.495654	0.025978	0.0945096	0.49058	-0.520645	0.311803	1.07637	0.742078	0	0	0.3179	-0.26498	-0.0708848	1.20363	0.960788	0	0
0.74	-0.14978	1.25765	-1.57679	0.806189	1.49516	0.992591	-0.359844	0.0205121	-0.109667	0.267405	0.194587	0	0	0.0542545	-0.0671246	-0.29706	0.0535856	0.155473	0	0	-0.494208	0.0387712	0.0884896	0.490848	-0.522409	0.313372	1.07801	0.743868	0	0	0.31364	-0.26147	-0.0753831	1.20424	0.962444	0	0
0.75	-0.157961	1.27182	-1.57462	0.805927	1.48477	0.989274	-0.326405	0.00116148	-0.179116	0.335492	0.237696	0	0	0.0611467	-0.0631474	-0.289363	2.77253e-10	0.149058	0	0	-0.476022	0.0366559	0.0915389	0.489038	-0.52053	0.315182	1.07864	0.73777	0	0	0.307752	-0.263288	-0.0769112	1.2075	0.960958	0	0
0.76	-0.177001	1.27591	-1.55207	0.806629	1.47495	0.98705	-0.327706	0.00736091	-0.183017	0.348256	0.246847	0	0	0.0782894	-0.0677198	-0.286511	0	0.155368	0	0	-0.469653	0.0418841	0.0886109	0.489562	-0.520357	0.317187	1.07823	0.741531	0	0	0.304754	-0.262359	-0.0796703	1.20826	0.964685	0	0
0.77	-0.200183	1.28086	-1.52767	0.807318	1.46503	0.984879	-0.328582	0.0111336	-0.186459	0.360169	0.257222	0	0	0.0939282	-0.0738368	-0.287451	0	0.164214	0	0	-0.462008	0.0474426	0.088831	0.486992	-0.517134	0.305703	1.0746	0.804643	0	0	0.303307	-0.259155	-0.0831409	1.20503	0.978087	0	0
0.78	-0.226412	1.29097	-1.50782	0.807539	1.45483	0.982283	-0.319953	0.0121947	-0.181337	0.379723	0.27195	0	0	0.11273	-0.0806591	-0.299377	0	0.174065	0	0	-0.448431	0.050349	0.0989523	0.47752	-0.513379	0.28177	1.0757	0.826168	0	0	0.304277	-0.25237	-0.0855818	1.19667	0.981515	0	0
0.79	-0.273411	1.27355	-1.44657	0.810045	1.44407	0.982462	-0.381829	0.0469889	-0.115004	0.305829	0.238032	0	0	0.102292	-0.0925952	-0.276205	0	0.179643	0	0	-0.46415	0.0716463	0.0869102	0.487201	-0.519733	0.306225	1.07412	0.801599	0	0	0.302372	-0.251657	-0.0863109	1.19817	0.978294	0	0
0.8	-0.290017	1.29487	-1.43832	0.810432	1.43298	0.978882	-0.331582	0.023941	-0.186134	0.392848	0.276033	0	0	0.127848	-0.0932596	-0.280897	0	0.186152	0	0	-0.434449	0.0737404	0.0986337	0.47917	-0.525064	0.310863	1.0764	0.752638	0	0	0.318761	-0.168763	-0.221955	1.14923	1.12818	0	0
0.81	-0.293773	1.28299	-1.43158	0.810979	1.42281	0.9773	-0.352287	0.0239515	-0.190311	0.401823	0.282761	0	0	0.116799	-0.0937511	-0.2774	0	0.1916	0	0	-0.448222	0.0695016	0.0917449	0.486675	-0.520512	0.313356	1.07247	0.755078	0	0	0.302266	-0.2488	-0.0926965	1.19093	1.03993	0	0
0.82	-0.307986	1.28117	-1.41859	0.812032	1.41163	0.975642	-0.361236	0.0234332	-0.18822	0.412331	0.287376	0	0	0.113003	-0.0951858	-0.27575	0	0.193933	0	0	-0.44679	0.071959	0.0925314	0.487977	-0.520546	0.31608	1.06932	0.75455	0	0	0.301946	-0.251172	-0.0839857	1.19033	0.997717	0	0
0.83	-0.316267	1.27953	-1.41252	0.813014	1.40019	0.973991	-0.369581	0.0210322	-0.18276	0.424241	0.291797	0	0	0.106585	-0.0943116	-0.275548	0	0.193111	0	0	-0.445286	0.0724281	0.0931944	0.489664	-0.520613	0.320138	1.0661	0.753194	0	0	0.301775	-0.252006	-0.0802637	1.18815	0.984177	0	0
0.84	-0.320669	1.27831	-1.41184	0.813872	1.38847	0.97233	-0.377026	0.0171112	-0.174145	0.437438	0.29561	0	0	0.0979011	-0.0919637	-0.277347	0	0.189767	0	0	-0.443496	0.0710724	0.0948792	0.49039	-0.519624	0.320704	1.06231	0.768856	0	0	0.301103	-0.252434	-0.0790306	1.18624	0.977649	0	0
0.85	-0.322745	1.2782	-1.41544	0.814551	1.37672	0.97058	-0.382222	0.0116513	-0.162352	0.453247	0.299206	0	0	0.0876591	-0.0884842	-0.281026	0	0.186094	0	0	-0.4407	0.0680697	0.098605	0.489153	-0.517856	0.316692	1.05916	0.794549	0	0	0.300496	-0.25233	-0.0792251	1.18369	0.981137	0	0
0.86	-0.329822	1.28634	-1.42526	0.814397	1.36447	0.968183	-0.372785	0.00270195	-0.134823	0.48005	0.308393	0	0	0.0827739	-0.0858333	-0.30045	0	0.186053	0	0	-0.428899	0.0612585	0.115236	0.479281	-0.512914	0.290891	1.05904	0.823016	0	0	0.301147	-0.248266	-0.0804629	1.17617	0.985067	0	0
0.87	-0.322909	1.28039	-1.43139	0.815723	1.35176	0.966646	-0.385611	-0.00311621	-0.133246	0.494241	0.30474	0	0	0.0614263	-0.0788529	-0.286739	0	0.185407	0	0	-0.43202	0.0594884	0.108791	0.48611	-0.515511	0.315175	1.05663	0.799517	0	0	0.296065	-0.253986	-0.0791105	1.18229	0.981197	0	0
0.88	-0.322465	1.28191	-1.44245	0.816207	1.33896	0.964516	-0.383946	-0.0135964	-0.119341	0.521138	0.30762	0	0	0.0441361	-0.0730824	-0.288782	0	0.193448	0	0	-0.426678	0.0545137	0.113785	0.487713	-0.51648	0.328182	1.05678	0.754164	0	0	0.29064	-0.256985	-0.0787866	1.18576	0.968496	0	0
0.89	-0.313604	1.28421	-1.46247	0.816375	1.3264	0.962107	-0.375313	-0.0321296	-0.123901	0.561454	0.311713	0	0	0.0360632	-0.0672316	-0.294248	0.0101301	0.20716	0	0	-0.420754	0.0456911	0.118663	0.488327	-0.513163	0.33206	1.05319	0.756472	0	0	0.285194	-0.260592	-0.0802693	1.18968	0.966942	0	0
0.9	-0.311057	1.28367	-1.47318	0.817325	1.31398	0.960188	-0.373846	-0.0354009	-0.0919029	0.589358	0.303645	0	0	0.0233936	-0.0614302	-0.294032	0.00830779	0.201752	0	0	-0.418732	0.0411816	0.120711	0.49077	-0.510578	0.336706	1.04976	0.755605	0	0	0.280505	-0.262503	-0.0836341	1.19257	0.969086	0	0
0.91	-0.29407	1.28871	-1.4968	0.818248	1.30175	0.957713	-0.354527	-0.0597345	-0.110251	0.643345	0.29931	0	0	0.0197143	-0.0519867	-0.297516	0.00429239	0.16623	0	0	-0.4114	0.0313037	0.120162	0.491465	-0.505444	0.337859	1.04634	0.755809	0	0	0.276155	-0.266419	-0.0858319	1.19668	0.968295	0	0
0.92	-0.293306	1.28926	-1.49761	0.820223	1.29051	0.956871	-0.349179	-0.0527329	-0.0647959	0.670777	0.276339	0	0	0.018348	-0.050029	-0.298845	0.00998363	0.108398	0	0	-0.412767	0.0294702	0.115694	0.494883	-0.501349	0.337238	1.04324	0.756422	0	0	0.276155	-0.266712	-0.0893306	1.19836	0.9659	0	0
0.93	-0.237853	1.30271	-1.55631	0.821478	1.27948	0.955056	-0.306546	-0.0927364	-0.0966437	0.747418	0.25959	0	0	0.0358627	-0.0345185	-0.313598	0.0332895	0.0671498	0	0	-0.400929	0.00827489	0.111815	0.49324	-0.492811	0.328923	1.03888	0.776693	0	0	0.276705	-0.27169	-0.0881355	1.20043	0.963269	0	0
0.94	-0.188701	1.30822	-1.60554	0.823167	1.26896	0.955005	-0.279135	-0.112817	-0.088525	0.80167	0.225388	0	0	0.0482086	-0.0236057	-0.327097	0.0672732	0.0519216	0	0	-0.399638	-0.00787953	0.107357	0.494595	-0.488138	0.325115	1.03647	0.78782	0	0	0.281278	-0.274884	-0.0857199	1.19839	0.967562	0	0
0.95	-0.141437	1.31324	-1.6543	0.824485	1.2585	0.955265	-0.250233	-0.130564	-0.0772932	0.854415	0.184839	0	0	0.0627546	-0.0164725	-0.350792	0.110693	0.0525735	0	0	-0.398563	-0.0232885	0.105723	0.496597	-0.487026	0.327952	1.0356	0.771857	0	0	0.286732	-0.278721	-0.0809532	1.19568	0.964221	0	0
0.96	-0.103936	1.31684	-1.69418	0.825523	1.24801	0.955724	-0.22321	-0.143622	-0.06455	0.90323	0.143732	0	0	0.0723144	-0.0123343	-0.374258	0.146494	0.0448578	0	0	-0.398826	-0.0358803	0.106681	0.498223	-0.487662	0.329433	1.03408	0.776617	0	0	0.292536	-0.282393	-0.0752863	1.19366	0.963058	0	0
0.97	-0.0757676	1.31954	-1.72366	0.826735	1.23763	0.956234	-0.198765	-0.152711	-0.0534606	0.947701	0.109125	0	0	0.0763499	-0.00872649	-0.389885	0.170029	0.0252482	0	0	-0.400662	-0.0447528	0.107905	0.49999	-0.490342	0.331801	1.03473	0.777052	0	0	0.298105	-0.285305	-0.0699239	1.19386	0.963708	0	0
0.98	-0.0559148	1.32472	-1.74437	0.828231	1.22747	0.956438	-0.172528	-0.158033	-0.0426493	0.988955	0.0849494	0	0	0.0812173	-0.00649363	-0.401971	0.188487	0.00489268	0	0	-0.400432	-0.0498099	0.109673	0.50174	-0.494132	0.3345	1.03675	0.774783	0	0	0.302569	-0.286765	-0.0655945	1.19645	0.964783	0	0
0.99	-0.0422461	1.33167	-1.75833	0.830095	1.21755	0.956486	-0.145127	-0.160163	-0.0324595	1.02607	0.0700002	0	0	0.0850015	-0.00376863	-0.407134	0.199169	-0.0154891	0	0	-0.398697	-0.0517872	0.111032	0.504192	-0.498122	0.337511	1.03878	0.769837	0	0	0.305482	-0.285743	-0.064705	1.20116	0.967378	0	0
1	-0.0323317	1.34036	-1.76891	0.832224	1.20778	0.956472	-0.115998	-0.159903	-0.0213602	1.05954	0.0619846	0	0	0.0877186	0.000573387	-0.407212	0.202377	-0.0338804	0	0	-0.394783	-0.0518148	0.11177	0.508148	-0.501777	0.342806	1.0394	0.755204	0	0	0.305974	-0.281564	-0.0700672	1.20733	0.973786	0	0
1.01	-0.0318372	1.3474	-1.77012	0.834486	1.19803	0.956805	-0.0903502	-0.155994	-0.00890274	1.08759	0.0615408	0	0	0.0857405	0.00580781	-0.402418	0.200021	-0.0445191	0	0	-0.392328	-0.0494237	0.112395	0.512414	-0.504417	0.345187	1.03854	0.755118	0	0	0.305644	-0.276713	-0.0757524	1.21325	0.974055	0	0
1.02	-0.0824348	1.35083	-1.72323	0.836433	1.18899	0.958414	-0.0775733	-0.115052	0.0487058	1.10013	0.0693499	0	0	0.0777937	-0.000272982	-0.398873	0.199138	-0.0429997	0	0	-0.396978	-0.0366691	0.1176	0.520429	-0.507613	0.348391	1.03514	0.76514	0	0	0.306801	-0.269231	-0.0838844	1.2157	0.977821	0	0
1.03	-0.0592078	1.35742	-1.74769	0.838171	1.17847	0.958705	-0.0484383	-0.134676	0.0259061	1.1263	0.0880469	0	0	0.0731641	0.0123731	-0.393347	0.194875	-0.0351946	0	0	-0.38944	-0.0403097	0.116502	0.521985	-0.508197	0.353316	1.03312	0.751937	0	0	0.303791	-0.269141	-0.0859318	1.21974	0.977053	0	0
1.04	-0.121141	1.35656	-1.69	0.839382	1.16946	0.961389	-0.0448014	-0.0875828	0.0851832	1.12425	0.105839	0	0	0.0583445	0.00450268	-0.388619	0.191801	-0.0293945	0	0	-0.397107	-0.0269482	0.122982	0.528933	-0.511216	0.358829	1.03106	0.742667	0	0	0.307578	-0.265925	-0.0866612	1.21567	0.97617	0	0
1.05	-0.0986911	1.35968	-1.71204	0.840748	1.159	0.962791	-0.0233775	-0.104629	0.0617334	1.13411	0.125328	0	0	0.0473623	0.0166365	-0.381742	0.183565	-0.0267999	0	0	-0.392888	-0.0309944	0.121162	0.527929	-0.51044	0.359855	1.0303	0.741554	0	0	0.308524	-0.268719	-0.0822453	1.21226	0.974437	0	0
